<svg width="560" height="392" viewBox="0 0 560 392" fill="none" xmlns="http://www.w3.org/2000/svg">
<g clip-path="url(#clip0_3029_9212)">
<path d="M231.839 391.63C185.005 391.63 141.624 384.594 105.355 370.803C76.6118 359.868 53.1459 345.046 35.6198 326.749C16.9752 307.29 5.50829 284.356 1.54482 258.599C-5.49169 212.873 11.6652 165.007 49.834 123.83C87.829 82.8492 143.676 51.9341 207.102 36.7861C210.534 35.9608 213.976 38.0783 214.801 41.5097C215.616 44.941 213.498 48.3833 210.067 49.2086C149.073 63.7702 95.4953 93.3605 59.2051 132.517C23.7402 170.773 7.74521 214.86 14.1736 256.655C25.8251 332.406 112.685 378.969 230.916 378.969C255.25 378.969 280.888 377.004 307.492 372.91C378.91 361.921 443.075 332.776 488.161 290.828C532.584 249.499 553.042 200.743 545.778 153.54C534.669 81.2855 461.969 28.9134 360.581 20.0961C357.062 19.792 354.467 16.6973 354.771 13.179C355.075 9.66075 358.17 7.05463 361.688 7.36954C413.887 11.9085 459.841 27.5018 494.589 52.4553C530.315 78.1147 552.38 112.396 558.407 151.596C566.334 203.121 544.475 255.884 496.859 300.177C449.916 343.852 383.352 374.169 309.436 385.539C282.962 389.611 256.901 391.63 231.839 391.63Z" fill="#231815"/>
</g>
<defs>
<clipPath id="clip0_3029_9212">
<rect width="560" height="391.634" fill="white"/>
</clipPath>
</defs>
</svg>
