<svg width="560" height="392" viewBox="0 0 560 392" fill="none" xmlns="http://www.w3.org/2000/svg">
<path d="M310.035 180.581C310.035 194.371 298.861 205.567 285.07 205.578C271.279 205.578 260.095 194.404 260.084 180.613C260.084 166.822 271.247 155.638 285.038 155.627C298.828 155.627 310.024 166.779 310.035 180.581Z" fill="#E7290F"/>
<path d="M325.329 13.5064C331.409 27.5903 318.259 46.8104 295.966 56.4205C273.673 66.0305 250.674 62.3928 244.593 48.2981C238.523 34.2033 251.662 14.9941 273.955 5.37317C296.249 -4.23688 319.248 -0.599176 325.318 13.5064H325.329Z" fill="#E7290F"/>
<path d="M146.388 330.062L215.233 330.018C233.965 297.507 246.398 265.951 246.376 229.9C246.322 147.96 202.8 122.05 164.001 109.769C160.374 108.488 166.021 100.137 187.923 100.387C233.758 100.919 246.224 121.377 273.968 140.076C274.11 140.174 274.685 139.891 274.522 139.501C242.239 93.0574 216.71 87.7908 188.292 87.8126C159.875 87.8343 131.859 112.723 131.881 151.88C131.913 214.09 176.467 221.365 176.489 266.668C176.5 289.635 162.318 312.232 146.367 330.062H146.388Z" fill="#008ED3"/>
<path d="M282.788 140.175C302.116 123.235 346.703 91.8311 365.369 81.9279C384.654 71.688 390.246 84.1431 390.246 93.7423C390.279 142.227 296.589 259.502 234.466 329.997L328.981 329.943C440.447 204.98 435.332 113.277 432.281 89.844C428.002 56.8332 400.551 58.234 382.2 64.152C350.242 74.457 301.15 110.845 282.158 139.751C282.038 140.142 282.516 140.413 282.788 140.175Z" fill="#409629"/>
<path d="M202.333 351.15C205.667 345.927 208.881 340.748 211.943 335.611L141.176 335.655C135.476 341.551 129.731 346.796 124.476 351.194L202.333 351.15Z" fill="#008ED3"/>
<path d="M117.512 356.788C112.865 360.338 108.944 362.988 106.295 364.519L182.296 381.47C187.997 373.032 193.502 364.812 198.747 356.744L117.512 356.788Z" fill="#008ED3"/>
<path d="M210.405 356.733C199.6 368.45 191.022 377.321 185.907 382.197L228.257 385.422L279.782 379.895C288.252 372.044 296.244 364.302 303.812 356.668L210.405 356.722V356.733Z" fill="#409629"/>
<path d="M309.292 351.085C314.363 345.851 319.25 340.671 323.93 335.535L229.513 335.6C224.593 341.127 219.913 346.329 215.526 351.139L309.292 351.085Z" fill="#409629"/>
</svg>
