<svg width="18" height="14" viewBox="0 0 18 14" fill="none" xmlns="http://www.w3.org/2000/svg">
<path d="M17.7911 1.99308C17.7106 1.58792 17.5312 1.21759 17.2803 0.911362C17.2274 0.844473 17.1723 0.7849 17.1124 0.724979C16.6679 0.278356 16.0443 0 15.3632 0H2.4742C1.79276 0 1.17125 0.278704 0.724979 0.724979C0.665058 0.784552 0.610013 0.844473 0.55706 0.911362C0.306226 1.21759 0.126462 1.58826 0.0484248 1.99308C0.0163739 2.1495 0 2.3108 0 2.4742V11.5262C0 11.8735 0.0735082 12.2072 0.204847 12.5086C0.32678 12.7963 0.506196 13.0566 0.724979 13.275C0.780371 13.3304 0.835415 13.3809 0.895337 13.4314C1.3235 13.7857 1.87603 14 2.4742 14H15.3629C15.9614 14 16.5163 13.7861 16.9417 13.4294C17.0016 13.3809 17.0567 13.3304 17.1121 13.275C17.3305 13.0566 17.5099 12.7963 17.6343 12.5086V12.5065C17.7656 12.2051 17.8367 11.8735 17.8367 11.5262V2.4742C17.8367 2.3108 17.8207 2.1495 17.7907 1.99308H17.7911ZM1.62032 1.62032C1.84154 1.39944 2.13836 1.26566 2.4742 1.26566H15.3629C15.6991 1.26566 15.9983 1.39944 16.2167 1.62032C16.2558 1.65968 16.2927 1.70358 16.3251 1.74713L9.56965 7.63475C9.38327 7.79814 9.15334 7.87861 8.91818 7.87861C8.68302 7.87861 8.45553 7.79779 8.26671 7.63475L1.51441 1.74434C1.54437 1.70079 1.5813 1.65933 1.62032 1.61997V1.62032ZM1.26566 11.5265V3.05425L6.15413 7.31877L1.2681 11.5791C1.26566 11.5631 1.26566 11.5446 1.26566 11.5265ZM15.3629 12.7343H2.4742C2.25541 12.7343 2.05057 12.6769 1.87603 12.5758L7.03135 8.08311L7.51282 8.50187C7.91554 8.85199 8.41965 9.02897 8.91888 9.02897C9.41811 9.02897 9.92465 8.85164 10.3274 8.50187L10.8085 8.08311L15.9617 12.5758C15.7868 12.6769 15.582 12.7343 15.3632 12.7343H15.3629ZM16.5714 11.5265C16.5714 11.545 16.5714 11.5631 16.569 11.5795L11.6829 7.3219L16.5714 3.05703V11.5269V11.5265Z" fill="white"/>
</svg>
