<svg width="261" height="57" viewBox="0 0 261 57" fill="none" xmlns="http://www.w3.org/2000/svg">
<g clip-path="url(#clip0_3028_2280)">
<path d="M44.6207 25.9891C44.6207 27.9754 43.0144 29.5875 41.0281 29.5875C39.0418 29.5875 37.4354 27.9812 37.4297 25.9949C37.4297 24.0086 39.036 22.4022 41.0223 22.3965C43.0086 22.3965 44.6207 24.0028 44.6207 25.9891Z" fill="#E7290F"/>
<path d="M46.8193 1.94644C47.6945 3.97305 45.8003 6.73662 42.5934 8.12416C39.3865 9.50594 36.076 8.98201 35.2009 6.9554C34.3257 4.92879 36.2199 2.15947 39.4268 0.777683C42.6337 -0.604099 45.9442 -0.0801736 46.8193 1.94644Z" fill="#E7290F"/>
<path d="M21.0665 47.5057H30.975C33.6695 42.8191 35.4601 38.2765 35.4543 33.0891C35.4486 21.2979 29.1845 17.5671 23.5998 15.7995C23.0759 15.6153 23.8877 14.412 27.0427 14.4465C33.6407 14.5214 35.4371 17.4692 39.427 20.1579C39.45 20.1694 39.5306 20.1291 39.5076 20.0773C34.8613 13.3929 31.1881 12.6329 27.0945 12.6387C23.001 12.6387 18.9708 16.2256 18.9766 21.8621C18.9766 30.8149 25.3961 31.8627 25.3961 38.3859C25.3961 41.6907 23.358 44.9436 21.0608 47.5114L21.0665 47.5057Z" fill="#008ED3"/>
<path d="M40.7001 20.1741C43.4809 17.7387 49.9005 13.2191 52.5834 11.7912C55.3585 10.3173 56.1645 12.1079 56.1645 13.4897C56.1645 20.4677 42.6864 37.3485 33.7451 47.493H47.3499C63.3901 29.5011 62.6589 16.2993 62.2156 12.9255C61.5995 8.17558 57.65 8.37709 55.0073 9.22919C50.4071 10.7146 43.3427 15.9481 40.608 20.1107C40.5907 20.1683 40.6598 20.2028 40.7001 20.1741Z" fill="#409629"/>
<path d="M29.1219 50.5386C29.5998 49.7843 30.0661 49.0416 30.5037 48.3047H20.3188C19.4955 49.1625 18.6722 49.9168 17.918 50.5501H29.1219V50.5386Z" fill="#008ED3"/>
<path d="M16.9099 51.3495C16.2421 51.8619 15.6778 52.2419 15.2979 52.4607L26.237 54.9018C27.0603 53.687 27.849 52.5068 28.6033 51.3438H16.9099V51.3495Z" fill="#008ED3"/>
<path d="M30.2843 51.3436C28.7298 53.0306 27.4977 54.3087 26.7607 55.0111L32.8579 55.4775L40.2734 54.683C41.494 53.5545 42.6455 52.4376 43.7336 51.3379H30.29L30.2843 51.3436Z" fill="#409629"/>
<path d="M44.517 50.5269C45.2482 49.7726 45.9506 49.0299 46.6242 48.293L33.0367 48.3045C32.3285 49.099 31.6549 49.8475 31.0273 50.5384H44.5228L44.517 50.5269Z" fill="#409629"/>
<path d="M33.3641 56.3663C26.6222 56.3663 20.3811 55.353 15.1591 53.3667C6.62663 50.1195 1.32404 44.3851 0.218617 37.2171C-0.79469 30.6364 1.67525 23.7447 7.16783 17.8203C12.6374 11.919 20.6747 7.47425 29.8003 5.29218C30.2954 5.17128 30.7905 5.48218 30.9057 5.97156C31.0208 6.4667 30.7215 6.96184 30.2263 7.07699C21.4462 9.17269 13.7371 13.4332 8.51507 19.0639C3.41399 24.5796 1.11678 30.9242 2.03796 36.9408C3.31611 45.2545 10.2365 49.5265 15.8155 51.651C23.5362 54.593 33.6405 55.3069 44.2572 53.6718C65.3466 50.4304 80.7305 36.2671 78.5542 22.0981C76.9536 11.7002 66.4923 4.16373 51.8973 2.89134C51.3906 2.84528 51.0164 2.40196 51.0625 1.8953C51.1085 1.38865 51.5518 1.01442 52.0585 1.06048C67.5229 2.40196 78.6405 10.5545 80.3735 21.816C82.7053 36.9811 66.6305 52.0885 44.5393 55.4854C40.7279 56.0727 36.9798 56.3605 33.3699 56.3605L33.3641 56.3663Z" fill="#231815"/>
<path d="M117.336 16.293H115.085C115.085 16.293 115.12 17.0817 115.166 18.1123H107.71V20.1907H115.269C115.321 21.158 115.373 22.0446 115.413 22.4995C115.598 24.624 116.335 30.1396 119.801 30.1396H121.464V28.2454C121.464 28.2454 120.336 28.3087 119.801 28.1936C119.588 28.1475 117.883 26.9903 117.584 22.4534C117.526 21.6071 117.486 20.8586 117.452 20.1907H120.63C121.188 20.1907 121.464 19.6841 121.464 19.3386V16.2987H119.541V18.1181H117.371C117.336 16.8975 117.342 16.2987 117.342 16.2987L117.336 16.293Z" fill="#231815"/>
<path d="M107.71 23.6507H110.289V27.4391C109.201 27.5254 108.217 27.5715 107.71 27.5542V29.8342C108.551 29.8342 113.663 29.3736 115.085 28.9706V26.8288C114.676 26.9555 113.652 27.1052 112.483 27.2318V23.6507H114.74V21.5723H107.71V23.6507Z" fill="#231815"/>
<path d="M98.267 33.9982C99.4531 35.9384 104.168 38.1723 105.026 38.1723V35.8175C102.625 35.2648 99.8676 33.2152 99.6085 32.3516H96.9313C96.6665 33.2152 93.9144 35.2591 91.5078 35.8175V38.1723C92.3714 38.1723 97.081 35.9384 98.267 33.9982Z" fill="#231815"/>
<path d="M102.084 36.1406H94.3516V37.9427H102.084V36.1406Z" fill="#231815"/>
<path d="M91.6406 41.0515H93.4485C93.126 41.823 92.6712 42.8824 92.1588 43.7402C92.0437 43.936 92.0091 44.1778 92.0091 44.3505V45.1335C92.0091 45.5193 92.2739 45.9798 92.8382 45.9798H103.466C104.019 45.9798 104.457 45.4329 104.226 44.8226C103.812 43.7114 103.271 42.4909 103.035 42.1166H100.766C101.238 43.0493 101.538 43.746 101.618 44.0741H94.1624C94.3178 44.0108 95.1008 42.226 95.619 41.0572H104.768V38.9961H91.6464V41.0572L91.6406 41.0515Z" fill="#231815"/>
<path d="M115.759 32.3516V36.0593H113.139V38.2644H115.759V43.6707H112.466V45.87H121.09V43.6707H117.976V38.2644H120.843V36.0593H117.976V32.3516H115.759Z" fill="#231815"/>
<path d="M109.23 32.3516V34.4588H107.41V36.4451H110.721C110.496 37.1648 108.694 39.318 107.255 40.0205V42.5019C107.485 42.4443 108.28 42.0125 109.224 41.241V46.1809H111.441V41.1604C112.172 42.001 113.012 42.4961 113.346 42.5019V39.9341C112.782 39.6808 112.103 39.105 111.665 38.6617C112.126 38.0169 112.546 37.2914 112.868 36.4969C112.984 36.2263 113.133 35.8924 113.133 35.2994C113.133 34.7064 112.65 34.4588 112.333 34.4588H111.441V32.3516H109.224H109.23Z" fill="#231815"/>
<path d="M93.4139 16.293V18.5269H91.6348V20.5132H93.3563C93.2642 21.6359 92.2624 24.0022 91.4736 24.9234V27.8078C92.0724 27.3818 92.8784 25.9712 93.4139 24.6585V30.1338H95.4175V24.7391C95.7859 25.4761 96.3387 26.1554 96.9259 26.38V24.2094C96.3156 23.8122 95.6765 22.2749 95.4175 21.4747V20.5132H96.7129V18.5269H95.4175V16.293H93.4139Z" fill="#231815"/>
<path d="M99.4592 16.293H97.7032C97.6226 17.2775 97.3059 18.5441 97.0583 19.2408C96.8914 19.6553 97.1332 20.208 97.6974 20.208H100.225V21.5783H96.9317V23.6452H99.5168C99.1598 24.7737 97.8241 26.9557 96.7129 27.33V29.8229C97.7665 29.3911 99.534 27.1112 100.225 25.6891V30.1396H102.229V26.426C102.908 27.6927 104.341 29.3048 105.303 29.7193V27.0421C104.416 26.4721 103.081 24.7218 102.724 23.6452H105.43V21.5783H102.229V20.208H105.245V18.1296H102.229V16.2987H100.225V18.1296H99.1598C99.2922 17.5135 99.4131 16.8572 99.4592 16.2987V16.293Z" fill="#231815"/>
<path d="M145.219 16.4902H140.216V40.896H133.301V21.0271H128.292V43.9416C128.292 44.9377 128.983 45.8013 130.232 45.8013H155.271C156.48 45.8013 157.177 44.8974 157.177 43.8438V21.0213H152.168V40.8902H145.219V16.4902Z" fill="#231815"/>
<path d="M224.2 19.9104V43.3604C224.2 44.0456 223.825 45.2546 222.087 45.2546H199.454V40.1996H218.655V23.2555H199.805V18.0508H222.34C223.261 18.0508 224.2 18.805 224.2 19.9162V19.9104Z" fill="#231815"/>
<path d="M229.295 17.9062H225.967V22.7598H229.295V17.9062Z" fill="#231815"/>
<path d="M233.734 17.9062H230.406V22.7598H233.734V17.9062Z" fill="#231815"/>
<path d="M245.392 17.5996H239.767C237.798 21.1174 232.668 36.5128 232.081 39.996V43.2317C232.081 43.9226 232.311 45.2928 234.183 45.2928H258.525V45.2756C259.769 45.2007 260.494 44.0607 260.241 42.9208C259.383 39.0172 257.638 33.2483 256.21 30.0069H250.465C251.391 32.235 252.756 36.4322 253.723 39.996H237.7C238.288 36.5128 243.417 21.1174 245.386 17.5996H245.392Z" fill="#231815"/>
<path d="M186.234 24.7344H171.069V28.4537H186.234V24.7344Z" fill="#231815"/>
<path d="M165.888 31.8099V36.911C165.888 37.8494 166.636 38.7764 167.793 38.7764H169.567C169.745 39.4097 170.004 40.4115 170.148 41.373H163.562V45.8004H193.8V41.373H187.38C187.524 40.4115 187.783 39.4039 187.962 38.7764H189.827C190.57 38.7764 191.675 38.2294 191.675 36.911V31.8675C191.675 30.739 190.834 30.0078 189.764 30.0078H167.753C166.791 30.0078 165.888 30.8139 165.888 31.8099ZM182.187 41.373H175.341C175.163 40.3942 174.904 39.4154 174.673 38.7764H182.86C182.63 39.4154 182.371 40.4 182.193 41.373H182.187ZM186.528 33.255V35.5177H170.827V33.255H186.528Z" fill="#231815"/>
<path d="M188.555 18.2339L185.175 16C185.175 16 183.108 18.2799 182.521 18.5736C181.761 17.8654 181.122 17.163 180.65 16.4836H166.302V19.9726H173.165C172.457 20.8996 171.38 21.7517 170.183 22.4886C167.966 20.629 167.051 20.1223 167.051 20.1223L164.103 22.3389C164.103 22.3389 165.312 23.3292 166.262 24.4001C164.972 24.8952 163.901 25.1773 163.464 25.1773V29.9963C164.673 29.7948 174.512 25.9719 178.629 20.5081C182.745 25.9776 192.585 29.8005 193.794 29.9963V24.9701C192.798 24.6592 191.796 24.2734 190.823 23.8474C192.026 22.6326 192.982 21.5386 193.414 20.9399L190.034 18.7117C190.034 18.7117 188.44 20.5944 186.874 21.8035C186.557 21.6135 186.252 21.4177 185.947 21.222C186.943 20.3066 188.123 18.9593 188.549 18.2281L188.555 18.2339Z" fill="#231815"/>
</g>
<defs>
<clipPath id="clip0_3028_2280">
<rect width="260.293" height="56.3652" fill="white"/>
</clipPath>
</defs>
</svg>
