<svg width="702" height="245" viewBox="0 0 702 245" fill="none" xmlns="http://www.w3.org/2000/svg">
<g clip-path="url(#clip0_266_1262)">
<path d="M108.423 1.87109L68.0611 73.3561V113.041H41.7437V73.783L2.5 1.87109H32.5734L53.3133 44.3553C53.7404 45.2216 54.7202 48.1342 56.2654 53.1058H56.5794C57.2201 49.7537 58.0994 46.9039 59.2049 44.5688L80.51 1.87109H108.423Z" fill="#241915"/>
<path d="M220.916 113.041H195.063L186.734 87.5677H146.297L138.107 113.041H112.393L153.131 1.87109H180.994L220.928 113.041H220.916ZM181.132 69.2634L168.494 30.7212C167.678 28.2856 167.1 25.0466 166.773 21.0292H166.133C165.844 24.2808 165.203 27.4194 164.198 30.4325L151.486 69.2634H181.144H181.132Z" fill="#241915"/>
<path d="M341.687 113.041V45.5731C341.687 39.3587 342.001 31.5247 342.616 22.1089H342.039C340.607 29.2398 339.451 33.9979 338.597 36.3958L311.161 113.041H292.268L264.481 37.1114C263.815 35.291 262.634 30.2944 260.963 22.1089H260.323C260.938 31.4368 261.252 40.7899 261.252 50.168V113.041H239.847V1.87109H274.317L298.298 69.0499C300.308 74.599 301.677 79.8216 302.393 84.6928H302.895C304.378 78.6164 305.91 73.3561 307.493 68.8993L331.562 1.87109H365.102V113.041H341.687Z" fill="#241915"/>
<path d="M491.388 113.041H465.536L457.207 87.5677H416.77L408.58 113.041H382.865L423.591 1.87109H451.454L491.388 113.041ZM451.605 69.2634L438.967 30.7212C438.151 28.2856 437.573 25.0466 437.246 21.0292H436.605C436.317 24.2808 435.676 27.4194 434.671 30.4325L421.958 69.2634H451.617H451.605Z" fill="#241915"/>
<path d="M576.18 21.2426H544.436V113.041H520.669V21.2426H489V1.87109H576.18V21.2552V21.2426Z" fill="#241915"/>
<path d="M97.3806 235.598C86.5145 241.862 73.1485 245.001 57.3078 245.001C39.5954 245.001 25.6139 240.029 15.3633 230.074C5.11273 220.118 0 206.509 0 189.234C0 171.959 5.64034 157.471 16.9085 146.499C28.1891 135.514 43.0374 130.027 61.4659 130.027C73.337 130.027 83.7006 131.697 92.5568 135.049V157.509C83.9393 152.487 73.3998 149.976 60.9634 149.976C50.2354 149.976 41.5425 153.466 34.8972 160.459C28.2394 167.44 24.9104 176.655 24.9104 188.092C24.9104 199.529 27.9128 208.781 33.9174 215.297C39.922 221.8 48.125 225.052 58.5138 225.052C64.6943 225.052 69.7442 224.098 73.6636 222.177V199.353H51.1902V180.333H97.3681V235.598H97.3806Z" fill="#241915"/>
<path d="M185.976 146.389C197.12 151.318 202.66 157.989 205.591 167.804C208.599 177.877 207.799 189.179 202.003 202.283C196.17 215.469 187.698 224.58 177.948 229.162C168.373 233.654 158.593 233.781 147.648 228.94C136.712 224.103 130.647 217.163 127.5 207.297C124.299 197.262 124.967 186.123 130.665 173.242L131.238 171.945C137.301 158.847 145.34 150.64 154.993 146.086C164.668 141.522 174.667 141.387 185.976 146.389Z" stroke="url(#paint0_linear_266_1262)" stroke-width="24"/>
<path d="M655.976 15.9008C667.12 20.8302 672.66 27.5002 675.591 37.3159C678.599 47.3882 677.799 58.691 672.003 71.7945C666.17 84.9811 657.698 94.0915 647.948 98.674C638.373 103.166 628.593 103.293 617.648 98.4521C606.712 93.6151 600.647 86.6747 597.5 76.8089C594.299 66.7739 594.967 55.6347 600.665 42.7539L601.238 41.4571C607.301 28.3591 615.34 20.1513 624.993 15.5973C634.668 11.0337 644.667 10.8988 655.976 15.9008Z" stroke="url(#paint1_linear_266_1262)" stroke-width="24"/>
<path d="M341.687 243.056V175.589C341.687 169.374 342.001 161.54 342.616 152.124H342.039C340.606 159.255 339.451 164.014 338.597 166.411L311.161 243.056H292.268L264.481 167.127C263.815 165.307 262.634 160.31 260.963 152.124H260.323C260.938 161.452 261.252 170.806 261.252 180.184V243.056H239.847V131.887H274.317L298.298 199.066C300.308 204.615 301.677 209.837 302.393 214.708H302.895C304.378 208.632 305.91 203.372 307.493 198.915L331.549 131.887H365.09V243.056H341.674H341.687Z" fill="#241915"/>
<path d="M480.861 195.262C480.861 228.418 465.448 245.002 434.608 245.002C403.768 245.002 389.938 228.857 389.938 196.555V131.887H413.705V196.693C413.705 215.211 421.003 224.463 435.613 224.463C450.223 224.463 457.157 215.537 457.157 197.697V131.887H480.861V195.262Z" fill="#241915"/>
</g>
<defs>
<linearGradient id="paint0_linear_266_1262" x1="189.702" y1="134.916" x2="143.184" y2="240.087" gradientUnits="userSpaceOnUse">
<stop stop-color="#008DD4"/>
<stop offset="1" stop-color="#3A982A"/>
</linearGradient>
<linearGradient id="paint1_linear_266_1262" x1="659.702" y1="4.42741" x2="613.184" y2="109.599" gradientUnits="userSpaceOnUse">
<stop stop-color="#008DD4"/>
<stop offset="1" stop-color="#3A982A"/>
</linearGradient>
<clipPath id="clip0_266_1262">
<rect width="702" height="245" fill="white"/>
</clipPath>
</defs>
</svg>
